<svg xmlns="http://www.w3.org/2000/svg" viewBox="0 0 1200 800" preserveAspectRatio="xMidYMid slice">
  <defs>
    
    <linearGradient id="sky" x1="0" y1="0" x2="0" y2="1">
      <stop offset="0%" stop-color="#EAE2D2"></stop>
      <stop offset="55%" stop-color="#C8C9BE"></stop>
      <stop offset="100%" stop-color="#9FAEB3"></stop>
    </linearGradient>
    
    <linearGradient id="field" x1="0" y1="0" x2="0" y2="1">
      <stop offset="0%" stop-color="#6B7A58"></stop>
      <stop offset="60%" stop-color="#4A5F40"></stop>
      <stop offset="100%" stop-color="#364A32"></stop>
    </linearGradient>
    
    <linearGradient id="mist" x1="0" y1="0" x2="0" y2="1">
      <stop offset="0%" stop-color="#EAE2D2" stop-opacity="0"></stop>
      <stop offset="100%" stop-color="#EAE2D2" stop-opacity="0.55"></stop>
    </linearGradient>
    
    <pattern id="grass" width="14" height="8" patternUnits="userSpaceOnUse">
      <path d="M2 8 L2 5 M6 8 L6 4 M10 8 L10 6" stroke="#2E3F2A" stroke-width="0.8" stroke-linecap="round" opacity="0.55"></path>
    </pattern>
  </defs>

  
  <rect width="1200" height="480" fill="url(#sky)"></rect>

  
  <g fill="#F2ECE0" opacity="0.55">
    <ellipse cx="180" cy="140" rx="120" ry="14"></ellipse>
    <ellipse cx="420" cy="110" rx="180" ry="12"></ellipse>
    <ellipse cx="740" cy="160" rx="150" ry="13"></ellipse>
    <ellipse cx="1020" cy="120" rx="140" ry="11"></ellipse>
    <ellipse cx="300" cy="200" rx="90" ry="8"></ellipse>
    <ellipse cx="880" cy="210" rx="110" ry="9"></ellipse>
  </g>

  
  <g fill="#2E3F2A" opacity="0.75">
    <rect x="0" y="455" width="1200" height="30"></rect>
    <path d="M0 460 Q 60 448 120 458 T 240 456 T 360 460 T 480 452 T 600 458 T 720 455 T 840 461 T 960 456 T 1080 459 T 1200 457 L 1200 485 L 0 485 Z"></path>
    
    <g>
      <ellipse cx="140" cy="448" rx="18" ry="10"></ellipse>
      <ellipse cx="320" cy="450" rx="24" ry="12"></ellipse>
      <ellipse cx="510" cy="446" rx="20" ry="11"></ellipse>
      <ellipse cx="720" cy="450" rx="26" ry="13"></ellipse>
      <ellipse cx="910" cy="448" rx="18" ry="10"></ellipse>
      <ellipse cx="1080" cy="450" rx="22" ry="11"></ellipse>
    </g>
  </g>

  
  <rect x="0" y="440" width="1200" height="70" fill="url(#mist)"></rect>

  
  <rect x="0" y="480" width="1200" height="320" fill="url(#field)"></rect>
  <rect x="0" y="480" width="1200" height="320" fill="url(#grass)"></rect>

  
  <path d="M0 720 Q 300 700 600 718 T 1200 712 L 1200 735 Q 900 745 600 735 T 0 740 Z" fill="#5A6F78" opacity="0.35"></path>

  
  <g fill="#1F1C18" opacity="0.6">
    <rect x="80" y="472" width="2" height="14"></rect>
    <rect x="170" y="472" width="2" height="14"></rect>
    <rect x="260" y="472" width="2" height="14"></rect>
    <rect x="350" y="472" width="2" height="14"></rect>
    <rect x="440" y="472" width="2" height="14"></rect>
    <rect x="530" y="472" width="2" height="14"></rect>
    <rect x="620" y="472" width="2" height="14"></rect>
    <rect x="710" y="472" width="2" height="14"></rect>
    <rect x="800" y="472" width="2" height="14"></rect>
    <rect x="890" y="472" width="2" height="14"></rect>
    <rect x="980" y="472" width="2" height="14"></rect>
    <rect x="1070" y="472" width="2" height="14"></rect>
    <rect x="1160" y="472" width="2" height="14"></rect>
  </g>
  
  <line x1="0" y1="478" x2="1200" y2="478" stroke="#1F1C18" stroke-width="0.6" opacity="0.35"></line>
  <line x1="0" y1="482" x2="1200" y2="482" stroke="#1F1C18" stroke-width="0.6" opacity="0.35"></line>

  
  <g fill="#1F1C18" opacity="0.85">
    <g transform="translate(380, 520)">
      <rect x="0" y="0" width="22" height="10" rx="2"></rect>
      <rect x="0" y="8" width="3" height="6"></rect>
      <rect x="19" y="8" width="3" height="6"></rect>
      <rect x="19" y="-2" width="5" height="4" rx="1"></rect>
      <rect x="2" y="2" width="6" height="4" fill="#F2ECE0"></rect>
      <rect x="12" y="2" width="5" height="3" fill="#F2ECE0"></rect>
    </g>
    <g transform="translate(430, 524)">
      <rect x="0" y="0" width="20" height="9" rx="2"></rect>
      <rect x="0" y="7" width="3" height="5"></rect>
      <rect x="17" y="7" width="3" height="5"></rect>
      <rect x="17" y="-2" width="4" height="3" rx="1"></rect>
      <rect x="4" y="2" width="5" height="3" fill="#F2ECE0"></rect>
    </g>
    <g transform="translate(760, 530)">
      <rect x="0" y="0" width="24" height="11" rx="2"></rect>
      <rect x="0" y="9" width="3" height="6"></rect>
      <rect x="21" y="9" width="3" height="6"></rect>
      <rect x="21" y="-2" width="5" height="4" rx="1"></rect>
      <rect x="3" y="3" width="7" height="4" fill="#F2ECE0"></rect>
      <rect x="13" y="2" width="6" height="4" fill="#F2ECE0"></rect>
    </g>
  </g>

  
  <g transform="translate(1000, 492)">
    <rect x="0" y="0" width="64" height="20" fill="#8B3A2E" opacity="0.85"></rect>
    <line x1="6" y1="2" x2="6" y2="18" stroke="#1F1C18" stroke-width="0.5" opacity="0.6"></line>
    <line x1="14" y1="2" x2="14" y2="18" stroke="#1F1C18" stroke-width="0.5" opacity="0.6"></line>
    <line x1="22" y1="2" x2="22" y2="18" stroke="#1F1C18" stroke-width="0.5" opacity="0.6"></line>
    <line x1="30" y1="2" x2="30" y2="18" stroke="#1F1C18" stroke-width="0.5" opacity="0.6"></line>
    <line x1="38" y1="2" x2="38" y2="18" stroke="#1F1C18" stroke-width="0.5" opacity="0.6"></line>
    <line x1="46" y1="2" x2="46" y2="18" stroke="#1F1C18" stroke-width="0.5" opacity="0.6"></line>
    <line x1="54" y1="2" x2="54" y2="18" stroke="#1F1C18" stroke-width="0.5" opacity="0.6"></line>
  </g>

  
  <rect x="0" y="720" width="1200" height="80" fill="#1F1C18" opacity="0.18"></rect>
</svg>