<svg xmlns="http://www.w3.org/2000/svg" viewBox="0 0 800 600" preserveAspectRatio="xMidYMid slice">
  
  <defs>
    <linearGradient id="door" x1="0" y1="0" x2="1" y2="1">
      <stop offset="0%" stop-color="#3A4E35"></stop>
      <stop offset="100%" stop-color="#2E3F2A"></stop>
    </linearGradient>
  </defs>
  <rect width="800" height="600" fill="url(#door)"></rect>
  
  <g opacity="0.3">
    <line x1="40" y1="0" x2="40" y2="600" stroke="#1F1C18" stroke-width="1"></line>
    <line x1="90" y1="0" x2="90" y2="600" stroke="#1F1C18" stroke-width="1"></line>
    <line x1="140" y1="0" x2="140" y2="600" stroke="#1F1C18" stroke-width="1"></line>
    <line x1="190" y1="0" x2="190" y2="600" stroke="#1F1C18" stroke-width="1"></line>
    <line x1="240" y1="0" x2="240" y2="600" stroke="#1F1C18" stroke-width="1"></line>
    <line x1="290" y1="0" x2="290" y2="600" stroke="#1F1C18" stroke-width="1"></line>
    <line x1="340" y1="0" x2="340" y2="600" stroke="#1F1C18" stroke-width="1"></line>
    <line x1="390" y1="0" x2="390" y2="600" stroke="#1F1C18" stroke-width="1"></line>
    <line x1="440" y1="0" x2="440" y2="600" stroke="#1F1C18" stroke-width="1"></line>
    <line x1="490" y1="0" x2="490" y2="600" stroke="#1F1C18" stroke-width="1"></line>
    <line x1="540" y1="0" x2="540" y2="600" stroke="#1F1C18" stroke-width="1"></line>
    <line x1="590" y1="0" x2="590" y2="600" stroke="#1F1C18" stroke-width="1"></line>
    <line x1="640" y1="0" x2="640" y2="600" stroke="#1F1C18" stroke-width="1"></line>
    <line x1="690" y1="0" x2="690" y2="600" stroke="#1F1C18" stroke-width="1"></line>
    <line x1="740" y1="0" x2="740" y2="600" stroke="#1F1C18" stroke-width="1"></line>
  </g>
  
  <g transform="translate(380, 260)">
    <rect x="0" y="0" width="40" height="50" fill="#1F1C18" rx="4"></rect>
    <path d="M 8 0 L 8 -14 Q 8 -22 20 -22 Q 32 -22 32 -14 L 32 0" fill="none" stroke="#1F1C18" stroke-width="5"></path>
    <circle cx="20" cy="22" r="3" fill="#C9A961"></circle>
  </g>
  <g opacity="0.4" font-family="Inter, sans-serif" font-size="11" fill="#F2ECE0" letter-spacing="0.15em">
    <text x="24" y="24" text-transform="uppercase">PLACEHOLDER — containerdeur detail</text>
  </g>
</svg>