<?xml version="1.0" encoding="UTF-8"?>
<svg id="Laag_1" xmlns="http://www.w3.org/2000/svg" version="1.1" viewBox="0 0 210 80">
  <!-- Generator: Adobe Illustrator 30.0.0, SVG Export Plug-In . SVG Version: 2.1.1 Build 123)  -->
  <defs>
    <style>
      .st0 {
        stroke: #fff;
        stroke-linecap: square;
        stroke-width: 1.5px;
      }

      .st0, .st1 {
        fill: none;
      }

      .st2 {
        fill: #c9a961;
      }

      .st3, .st1 {
        isolation: isolate;
      }

      .st1 {
        opacity: .5;
        stroke: #c9a961;
        stroke-width: .6px;
      }

      .st4 {
        fill: #fff;
      }
    </style>
  </defs>
  <g class="st3">
    <g class="st3">
      <path class="st4" d="M17.36,40.29c-1.62,0-3.04-.36-4.28-1.09-1.24-.73-2.21-1.74-2.92-3.05-.7-1.3-1.06-2.82-1.06-4.55s.35-3.22,1.06-4.52c.7-1.3,1.68-2.32,2.92-3.06,1.24-.74,2.67-1.1,4.28-1.1s3.1.37,4.34,1.1c1.25.74,2.22,1.76,2.9,3.06s1.03,2.81,1.03,4.52-.34,3.24-1.03,4.55c-.69,1.3-1.66,2.32-2.9,3.05-1.25.73-2.7,1.09-4.34,1.09ZM17.38,37.7c1.07,0,2.01-.24,2.81-.73.8-.49,1.42-1.19,1.85-2.1s.65-2,.65-3.26-.22-2.35-.65-3.26-1.05-1.61-1.85-2.1c-.8-.49-1.74-.73-2.81-.73s-2.01.24-2.81.73c-.8.49-1.42,1.19-1.86,2.1s-.66,2-.66,3.26.22,2.35.66,3.26,1.06,1.61,1.86,2.1c.8.49,1.74.73,2.81.73Z"/>
      <path class="st4" d="M27.87,45.28v-17.38h2.57l.31,1.75c.26-.35.56-.68.92-1,.36-.31.8-.56,1.32-.76.52-.19,1.12-.29,1.79-.29,1.14,0,2.14.28,3.01.84.87.56,1.56,1.32,2.05,2.27.5.95.74,2.04.74,3.25s-.25,2.3-.76,3.25c-.5.95-1.19,1.7-2.06,2.24-.87.54-1.87.82-2.99.82-.91,0-1.71-.17-2.39-.52-.68-.34-1.23-.84-1.64-1.48v6.98h-2.88ZM34.18,37.79c.67,0,1.27-.16,1.8-.48.53-.32.94-.77,1.24-1.34.3-.58.44-1.24.44-1.99s-.15-1.44-.44-2.02c-.3-.58-.71-1.02-1.24-1.34-.53-.32-1.13-.48-1.8-.48s-1.29.16-1.81.48-.93.77-1.22,1.34-.44,1.24-.44,1.99.15,1.44.44,2c.3.57.7,1.02,1.22,1.34.52.33,1.12.49,1.81.49Z"/>
      <path class="st4" d="M47.72,40.29c-1.07,0-2-.17-2.8-.52-.79-.34-1.42-.82-1.87-1.44s-.72-1.32-.8-2.12h2.88c.08.34.22.64.43.92.21.28.49.5.85.66s.79.24,1.28.24.87-.07,1.18-.2c.3-.14.53-.32.67-.54.14-.22.22-.46.22-.72,0-.38-.1-.68-.31-.89-.21-.21-.51-.37-.9-.49-.39-.12-.86-.24-1.4-.35-.58-.11-1.13-.25-1.67-.42-.54-.17-1.02-.38-1.44-.64-.42-.26-.76-.58-1.01-.98-.25-.4-.37-.89-.37-1.46,0-.7.19-1.34.56-1.9.38-.56.92-1,1.63-1.33s1.56-.49,2.56-.49c1.41,0,2.53.32,3.37.97.84.65,1.33,1.56,1.48,2.72h-2.74c-.08-.45-.3-.79-.67-1.04-.37-.25-.86-.37-1.46-.37s-1.1.12-1.43.35c-.33.23-.49.54-.49.92,0,.26.1.48.3.67.2.19.49.36.88.49.38.14.86.27,1.42.4.9.18,1.69.38,2.38.62.69.24,1.23.59,1.63,1.06s.6,1.12.6,1.97c.02.77-.18,1.45-.59,2.04-.41.59-.98,1.05-1.72,1.38s-1.62.49-2.64.49Z"/>
      <path class="st4" d="M54.97,40v-17.28h2.88v17.28h-2.88Z"/>
      <path class="st4" d="M64.62,40.29c-.99,0-1.82-.17-2.47-.5-.66-.34-1.14-.78-1.46-1.34-.32-.56-.48-1.17-.48-1.82,0-.77.2-1.43.59-1.99.39-.56.97-1,1.74-1.31.77-.31,1.71-.47,2.83-.47h3.05c0-.64-.09-1.17-.26-1.6-.18-.42-.45-.74-.82-.95-.37-.21-.84-.31-1.42-.31-.66,0-1.22.15-1.68.44-.46.3-.75.75-.86,1.36h-2.83c.1-.86.38-1.6.86-2.22s1.12-1.1,1.91-1.44c.79-.34,1.66-.52,2.6-.52,1.14,0,2.1.2,2.9.59.8.39,1.41.95,1.84,1.68.42.73.64,1.6.64,2.63v7.49h-2.45l-.29-1.94c-.16.32-.36.62-.61.89-.25.27-.53.51-.85.71s-.68.36-1.09.47c-.41.11-.87.17-1.38.17ZM65.26,38.01c.46,0,.88-.08,1.24-.25s.67-.41.94-.72c.26-.31.47-.66.61-1.04.14-.38.24-.79.29-1.22v-.05h-2.66c-.56,0-1.02.07-1.39.22-.37.14-.63.34-.79.59-.16.25-.24.54-.24.88s.08.62.24.86c.16.24.39.42.7.55.3.13.66.19,1.08.19Z"/>
      <path class="st4" d="M78.97,45.57c-1.14,0-2.13-.14-2.99-.42-.86-.28-1.52-.71-1.99-1.27-.47-.57-.71-1.28-.71-2.12,0-.5.12-.98.37-1.45s.62-.91,1.13-1.32c.5-.41,1.15-.76,1.93-1.07l1.27,1.39c-.77.27-1.3.6-1.61.98-.3.38-.46.78-.46,1.18s.13.76.4,1.04.62.49,1.08.64c.46.14.97.22,1.55.22s1.05-.08,1.46-.23c.42-.15.74-.36.97-.64.23-.27.35-.6.35-.98,0-.48-.17-.87-.5-1.16s-1-.48-1.99-.54c-.85-.06-1.59-.16-2.23-.28-.64-.12-1.19-.26-1.64-.42s-.84-.34-1.16-.54c-.32-.2-.58-.4-.79-.61v-.55l2.52-2.64,2.14.7-2.83,2.76.74-1.39c.16.11.32.22.49.31.17.1.38.18.65.25.26.07.61.14,1.04.2.43.06.99.13,1.68.19,1.07.08,1.94.27,2.62.58.67.3,1.17.71,1.49,1.22.32.51.48,1.13.48,1.85s-.2,1.37-.59,1.99c-.39.62-.99,1.14-1.79,1.54-.8.4-1.82.6-3.07.6ZM78.97,36.38c-1.01,0-1.88-.2-2.6-.59-.73-.39-1.28-.92-1.67-1.58-.38-.66-.58-1.4-.58-2.2s.19-1.55.58-2.21c.38-.66.94-1.18,1.67-1.58.73-.4,1.6-.6,2.6-.6s1.87.2,2.59.6c.72.4,1.27.93,1.66,1.58.38.66.58,1.39.58,2.21s-.19,1.53-.58,2.2c-.38.66-.94,1.19-1.66,1.58-.72.39-1.58.59-2.59.59ZM78.97,34.14c.69,0,1.24-.18,1.66-.55.42-.37.62-.9.62-1.58s-.21-1.21-.62-1.57c-.42-.36-.97-.54-1.66-.54s-1.25.18-1.68.54c-.43.36-.65.88-.65,1.57s.22,1.22.65,1.58c.43.37.99.55,1.68.55ZM80.96,30.02l-.55-2.11h4.97v1.82l-4.42.29Z"/>
    </g>
  </g>
  <g class="st3">
    <g class="st3">
      <path class="st2" d="M9.7,62v-16.8h2.88v6.94l6.34-6.94h3.58l-6.22,6.67,6.36,10.13h-3.5l-4.9-7.92-1.66,1.8v6.12h-2.88Z"/>
    </g>
    <g class="st3">
      <path class="st2" d="M27.58,62.29c-.99,0-1.82-.17-2.47-.5-.66-.34-1.14-.78-1.46-1.34-.32-.56-.48-1.17-.48-1.82,0-.77.2-1.43.59-1.99.39-.56.97-1,1.74-1.31.77-.31,1.71-.47,2.83-.47h3.05c0-.64-.09-1.17-.26-1.6-.18-.42-.45-.74-.82-.95-.37-.21-.84-.31-1.42-.31-.66,0-1.22.15-1.68.44-.46.3-.75.75-.86,1.36h-2.83c.1-.86.38-1.6.86-2.22s1.12-1.1,1.91-1.44c.79-.34,1.66-.52,2.6-.52,1.14,0,2.1.2,2.9.59.8.39,1.41.95,1.84,1.68.42.73.64,1.6.64,2.63v7.49h-2.45l-.29-1.94c-.16.32-.36.62-.61.89-.25.27-.53.51-.85.71s-.68.36-1.09.47c-.41.11-.87.17-1.38.17ZM28.23,60.01c.46,0,.88-.08,1.24-.25s.67-.41.94-.72c.26-.31.47-.66.61-1.04.14-.38.24-.79.29-1.22v-.05h-2.66c-.56,0-1.02.07-1.39.22-.37.14-.63.34-.79.59-.16.25-.24.54-.24.88s.08.62.24.86c.16.24.39.42.7.55.3.13.66.19,1.08.19Z"/>
    </g>
    <g class="st3">
      <path class="st2" d="M41.91,62c-.82,0-1.52-.13-2.12-.38-.6-.26-1.07-.68-1.4-1.27-.34-.59-.5-1.39-.5-2.4v-5.62h-2.06v-2.42h2.06l.34-3.19h2.54v3.19h3.29v2.42h-3.29v5.62c0,.61.13,1.03.4,1.26.26.23.71.35,1.33.35h1.49v2.45h-2.06Z"/>
    </g>
    <g class="st3">
      <path class="st2" d="M48.68,62l-3.55-12.1h2.86l2.47,9.94-.53-.02,2.76-9.91h3.22l2.78,9.91h-.53l2.47-9.91h2.86l-3.55,12.1h-2.98l-2.95-10.25h.6l-2.95,10.25h-2.98Z"/>
    </g>
    <g class="st3">
      <path class="st2" d="M70.28,62.29c-1.15,0-2.19-.27-3.11-.8-.92-.54-1.64-1.28-2.16-2.23-.52-.95-.78-2.04-.78-3.28s.26-2.37.79-3.32c.53-.95,1.25-1.7,2.17-2.23.92-.54,1.96-.8,3.11-.8s2.19.27,3.11.8,1.64,1.28,2.16,2.22c.52.94.78,2.05.78,3.31s-.26,2.37-.79,3.31c-.53.94-1.25,1.68-2.17,2.22-.92.54-1.96.8-3.11.8ZM70.28,59.82c.58,0,1.1-.14,1.57-.43s.85-.72,1.14-1.3.43-1.29.43-2.14-.14-1.56-.42-2.12c-.28-.57-.66-1-1.13-1.28-.47-.29-1-.43-1.57-.43s-1.08.14-1.56.43-.86.72-1.15,1.28-.43,1.28-.43,2.12.14,1.56.43,2.14.67,1.01,1.14,1.3c.47.29.99.43,1.55.43Z"/>
      <path class="st2" d="M83.17,62.29c-.98,0-1.81-.2-2.51-.59-.7-.39-1.23-.98-1.6-1.78-.37-.79-.55-1.77-.55-2.94v-7.08h2.88v6.79c0,1.04.22,1.83.66,2.36.44.54,1.11.8,2,.8.58,0,1.09-.14,1.55-.41.46-.27.82-.67,1.08-1.19.26-.52.4-1.16.4-1.91v-6.46h2.88v12.1h-2.54l-.22-2.02c-.37.7-.9,1.26-1.6,1.68-.7.42-1.51.62-2.44.62Z"/>
      <path class="st2" d="M98.07,62.29c-1.12,0-2.12-.27-3-.82-.88-.54-1.56-1.3-2.05-2.26-.49-.96-.73-2.05-.73-3.26s.25-2.3.74-3.25,1.19-1.7,2.08-2.26c.89-.55,1.89-.83,3.01-.83.91,0,1.71.17,2.39.52.68.34,1.22.83,1.62,1.45v-6.86h2.88v17.28h-2.59l-.29-1.75c-.26.35-.57.68-.94,1-.37.31-.81.56-1.32.76-.51.19-1.11.29-1.8.29ZM98.67,59.79c.69,0,1.3-.16,1.82-.49.53-.33.94-.78,1.22-1.36s.43-1.24.43-1.99-.14-1.42-.43-1.99c-.29-.58-.7-1.02-1.22-1.34-.53-.32-1.14-.48-1.82-.48s-1.25.16-1.78.48c-.53.32-.94.77-1.24,1.34s-.44,1.24-.44,1.99.15,1.42.44,1.99c.3.58.71,1.03,1.24,1.36.53.33,1.12.49,1.78.49Z"/>
      <path class="st2" d="M113.38,62.29c-1.2,0-2.26-.26-3.17-.78s-1.62-1.25-2.14-2.2c-.51-.94-.77-2.03-.77-3.26s.25-2.4.76-3.36c.5-.96,1.22-1.71,2.14-2.26.92-.54,1.99-.82,3.2-.82s2.22.26,3.1.79c.88.53,1.56,1.24,2.04,2.12.48.89.72,1.88.72,2.99v.53c0,.19-.02.39-.05.6h-9.84v-1.85h6.98c-.03-.88-.33-1.57-.89-2.08-.56-.5-1.26-.76-2.09-.76-.59,0-1.14.14-1.63.41-.5.27-.89.68-1.18,1.21s-.43,1.21-.43,2.03v.7c0,.75.14,1.4.42,1.94s.66.96,1.15,1.24c.49.28,1.04.42,1.64.42.67,0,1.23-.14,1.67-.43.44-.29.76-.67.97-1.15h2.93c-.22.75-.59,1.43-1.1,2.03-.51.6-1.14,1.07-1.9,1.42-.75.34-1.6.52-2.54.52Z"/>
    </g>
  </g>
  <g>
    <line class="st0" x1="125.65" y1="61.26" x2="203.49" y2="61.26"/>
    <rect class="st4" x="134.3" y="35.32" width="60.54" height="25.95"/>
    <line class="st1" x1="145.83" y1="38.2" x2="145.83" y2="58.38"/>
    <line class="st1" x1="154.48" y1="38.2" x2="154.48" y2="58.38"/>
    <line class="st1" x1="164.57" y1="38.2" x2="164.57" y2="58.38"/>
    <line class="st1" x1="174.66" y1="38.2" x2="174.66" y2="58.38"/>
    <line class="st1" x1="184.75" y1="38.2" x2="184.75" y2="58.38"/>
    <circle class="st2" cx="140.07" cy="23.78" r="5.04"/>
  </g>
</svg>